<?xml version="1.0" standalone="no"?>
<!DOCTYPE svg PUBLIC "-//W3C//DTD SVG 20010904//EN"
 "http://www.w3.org/TR/2001/REC-SVG-20010904/DTD/svg10.dtd">
<svg version="1.0" xmlns="http://www.w3.org/2000/svg"
 width="1250.000000pt" height="1250.000000pt" viewBox="0 0 1250.000000 1250.000000"
 preserveAspectRatio="xMidYMid meet">

<g transform="translate(0.000000,1250.000000) scale(0.100000,-0.100000)"
fill="#000000" stroke="none">
<path d="M4064 8091 c3 -5 18 -11 33 -14 16 -3 53 -11 83 -17 30 -6 89 -19
130 -30 96 -25 316 -65 495 -89 161 -23 243 -39 250 -50 2 -5 -53 -23 -123
-40 -70 -18 -156 -40 -192 -49 l-65 -17 -3 -464 c-2 -435 -3 -463 -20 -456 -9
4 -66 20 -127 35 -60 15 -155 40 -210 55 -55 15 -143 38 -195 52 -52 14 -135
36 -185 50 -182 50 -206 56 -211 50 -3 -3 36 -47 88 -99 99 -99 268 -281 359
-388 374 -438 511 -818 513 -1425 0 -188 -3 -237 -22 -340 -23 -122 -58 -263
-93 -369 -27 -83 -26 -86 23 -86 39 0 47 5 117 78 91 92 569 607 609 653 l27
33 3 376 3 376 -23 21 c-28 25 -479 347 -509 363 -25 14 -17 25 38 57 31 18
209 130 381 240 48 30 93 62 100 71 9 12 12 152 12 619 l0 602 95 99 c52 55
95 102 95 106 0 3 -333 6 -741 6 -426 0 -738 -4 -735 -9z"/>
<path d="M7390 7948 c-96 -83 -283 -243 -414 -357 -132 -113 -343 -296 -471
-406 -219 -189 -304 -263 -675 -583 -85 -74 -217 -189 -292 -255 l-138 -121
28 -26 c96 -87 302 -263 697 -595 248 -208 479 -404 515 -435 36 -31 92 -78
126 -106 33 -27 157 -130 275 -229 118 -100 282 -238 366 -308 l151 -127 516
0 c284 0 516 3 515 8 0 4 -32 32 -72 62 -63 48 -442 361 -537 444 -20 17 -58
50 -85 72 -86 72 -194 162 -379 318 -301 254 -359 302 -721 605 -192 162 -352
298 -354 303 -4 10 49 59 269 248 85 74 234 202 330 286 96 83 267 232 380
329 113 98 266 230 340 295 74 64 167 143 205 176 146 123 620 538 623 546 2
4 -227 8 -510 8 l-513 -1 -175 -151z"/>
</g>
</svg>
