<svg xmlns="http://www.w3.org/2000/svg" xmlns:xlink="http://www.w3.org/1999/xlink" width="189" zoomAndPan="magnify" viewBox="0 0 141.12 149.04" height="189" preserveAspectRatio="xMidYMid meet" version="1.0"><defs><clipPath id="2a81eb18e2"><path d="M 1.175781 1.636719 L 71 1.636719 L 71 70.058594 L 1.175781 70.058594 Z M 1.175781 1.636719 " clip-rule="nonzero"/></clipPath><clipPath id="f3afb43a62"><path d="M 64.800781 25.359375 L 63.851562 24.503906 C 63.941406 24.113281 64.019531 23.71875 64.082031 23.324219 C 64.894531 18.363281 63.71875 13.398438 60.765625 9.335938 C 57.265625 4.515625 51.605469 1.636719 45.632812 1.636719 C 42.375 1.636719 39.160156 2.496094 36.339844 4.121094 L 35.230469 4.757812 C 34.886719 4.550781 34.53125 4.355469 34.175781 4.171875 C 31.53125 2.808594 28.570312 2.085938 25.609375 2.085938 C 23.65625 2.085938 21.714844 2.394531 19.84375 3.003906 C 12.125 5.511719 6.933594 12.65625 6.933594 20.777344 C 6.933594 22.085938 7.070312 23.382812 7.339844 24.636719 L 7.605469 25.871094 C 7.300781 26.136719 7.007812 26.40625 6.71875 26.695312 C 3.152344 30.226562 1.179688 34.9375 1.179688 39.960938 C 1.179688 44.945312 3.125 49.636719 6.65625 53.167969 C 9.671875 56.183594 13.65625 58.09375 17.878906 58.539062 L 19.148438 58.675781 C 19.304688 59.042969 19.472656 59.410156 19.65625 59.773438 C 21.921875 64.265625 25.796875 67.59375 30.566406 69.140625 C 32.441406 69.75 34.378906 70.054688 36.324219 70.054688 C 43.699219 70.054688 50.398438 65.710938 53.394531 58.992188 L 53.910156 57.828125 C 54.316406 57.792969 54.71875 57.746094 55.121094 57.683594 C 60.082031 56.917969 64.441406 54.265625 67.390625 50.210938 C 69.722656 47.003906 70.953125 43.210938 70.953125 39.242188 C 70.953125 33.945312 68.710938 28.886719 64.800781 25.359375 " clip-rule="nonzero"/></clipPath><clipPath id="ddf2a06139"><path d="M 0.175781 0.636719 L 70 0.636719 L 70 69.058594 L 0.175781 69.058594 Z M 0.175781 0.636719 " clip-rule="nonzero"/></clipPath><clipPath id="da2d41134e"><path d="M 63.800781 24.359375 L 62.851562 23.503906 C 62.941406 23.113281 63.019531 22.71875 63.082031 22.324219 C 63.894531 17.363281 62.71875 12.398438 59.765625 8.335938 C 56.265625 3.515625 50.605469 0.636719 44.632812 0.636719 C 41.375 0.636719 38.160156 1.496094 35.339844 3.121094 L 34.230469 3.757812 C 33.886719 3.550781 33.53125 3.355469 33.175781 3.171875 C 30.53125 1.808594 27.570312 1.085938 24.609375 1.085938 C 22.65625 1.085938 20.714844 1.394531 18.84375 2.003906 C 11.125 4.511719 5.933594 11.65625 5.933594 19.777344 C 5.933594 21.085938 6.070312 22.382812 6.339844 23.636719 L 6.605469 24.871094 C 6.300781 25.136719 6.007812 25.40625 5.71875 25.695312 C 2.152344 29.226562 0.179688 33.9375 0.179688 38.960938 C 0.179688 43.945312 2.125 48.636719 5.65625 52.167969 C 8.671875 55.183594 12.65625 57.09375 16.878906 57.539062 L 18.148438 57.675781 C 18.304688 58.042969 18.472656 58.410156 18.65625 58.773438 C 20.921875 63.265625 24.796875 66.59375 29.566406 68.140625 C 31.441406 68.75 33.378906 69.054688 35.324219 69.054688 C 42.699219 69.054688 49.398438 64.710938 52.394531 57.992188 L 52.910156 56.828125 C 53.316406 56.792969 53.71875 56.746094 54.121094 56.683594 C 59.082031 55.917969 63.441406 53.265625 66.390625 49.210938 C 68.722656 46.003906 69.953125 42.210938 69.953125 38.242188 C 69.953125 32.945312 67.710938 27.886719 63.800781 24.359375 " clip-rule="nonzero"/></clipPath><clipPath id="34e48e5d7f"><rect x="0" width="70" y="0" height="70"/></clipPath><clipPath id="3d3a544933"><path d="M 37.464844 28.355469 L 67 28.355469 L 67 53.992188 L 37.464844 53.992188 Z M 37.464844 28.355469 " clip-rule="nonzero"/></clipPath><clipPath id="5f99b119fe"><path d="M 66.917969 39.246094 C 66.917969 42.230469 66.011719 45.242188 64.125 47.839844 C 61.734375 51.125 58.226562 53.125 54.5 53.699219 C 53.277344 53.886719 52.023438 53.925781 50.78125 53.796875 C 49.570312 53.675781 48.371094 53.402344 47.207031 52.972656 C 45.972656 52.519531 44.777344 51.890625 43.664062 51.082031 C 40.773438 48.980469 38.792969 45.96875 38 42.523438 C 37.921875 42.191406 37.859375 41.859375 37.804688 41.519531 C 37.75 41.167969 37.707031 40.816406 37.679688 40.464844 C 37.570312 39.253906 37.613281 38.046875 37.808594 36.871094 C 37.847656 36.890625 37.886719 36.910156 37.925781 36.925781 C 39.011719 37.429688 40.152344 37.828125 41.335938 38.117188 C 41.8125 38.230469 42.296875 38.324219 42.785156 38.402344 C 42.953125 38.429688 43.125 38.453125 43.292969 38.476562 C 45.273438 38.734375 47.25 38.667969 49.160156 38.296875 C 51.75 37.792969 54.214844 36.726562 56.410156 35.132812 C 57.84375 34.089844 59.085938 32.878906 60.117188 31.539062 C 60.890625 30.539062 61.550781 29.476562 62.09375 28.359375 C 65.246094 31.207031 66.910156 35.203125 66.910156 39.246094 " clip-rule="nonzero"/></clipPath><clipPath id="88eda94cfe"><path d="M 0.554688 0.355469 L 30 0.355469 L 30 25.992188 L 0.554688 25.992188 Z M 0.554688 0.355469 " clip-rule="nonzero"/></clipPath><clipPath id="29f2e8bdf5"><path d="M 29.917969 11.246094 C 29.917969 14.230469 29.011719 17.242188 27.125 19.839844 C 24.734375 23.125 21.226562 25.125 17.5 25.699219 C 16.277344 25.886719 15.023438 25.925781 13.78125 25.796875 C 12.570312 25.675781 11.371094 25.402344 10.207031 24.972656 C 8.972656 24.519531 7.777344 23.890625 6.664062 23.082031 C 3.773438 20.980469 1.792969 17.96875 1 14.523438 C 0.921875 14.191406 0.859375 13.859375 0.804688 13.519531 C 0.75 13.167969 0.707031 12.816406 0.679688 12.464844 C 0.570312 11.253906 0.613281 10.046875 0.808594 8.871094 C 0.847656 8.890625 0.886719 8.910156 0.925781 8.925781 C 2.011719 9.429688 3.152344 9.828125 4.335938 10.117188 C 4.8125 10.230469 5.296875 10.324219 5.785156 10.402344 C 5.953125 10.429688 6.125 10.453125 6.292969 10.476562 C 8.273438 10.734375 10.25 10.667969 12.160156 10.296875 C 14.75 9.792969 17.214844 8.726562 19.410156 7.132812 C 20.84375 6.089844 22.085938 4.878906 23.117188 3.539062 C 23.890625 2.539062 24.550781 1.476562 25.09375 0.359375 C 28.246094 3.207031 29.910156 7.203125 29.910156 11.246094 " clip-rule="nonzero"/></clipPath><clipPath id="2bf9da2f8c"><rect x="0" width="30" y="0" height="26"/></clipPath><clipPath id="6d5bfcc60b"><path d="M 38.1875 5.605469 L 60.394531 5.605469 L 60.394531 35 L 38.1875 35 Z M 38.1875 5.605469 " clip-rule="nonzero"/></clipPath><clipPath id="30155251db"><path d="M 60.101562 22.671875 C 59.902344 23.894531 59.550781 25.09375 59.042969 26.238281 C 58.558594 27.351562 57.925781 28.410156 57.15625 29.382812 C 56.347656 30.414062 55.378906 31.355469 54.265625 32.164062 C 51.371094 34.269531 47.890625 35.226562 44.367188 34.910156 L 44.363281 34.910156 L 44.359375 34.90625 C 44.027344 34.878906 43.695312 34.839844 43.363281 34.785156 C 43.011719 34.726562 42.65625 34.660156 42.3125 34.585938 C 41.132812 34.308594 40.003906 33.890625 38.941406 33.347656 C 38.976562 33.316406 39.003906 33.28125 39.035156 33.25 C 39.847656 32.375 40.582031 31.40625 41.21875 30.367188 C 41.476562 29.949219 41.71875 29.519531 41.941406 29.082031 C 42.015625 28.929688 42.089844 28.777344 42.160156 28.625 C 43.019531 26.820312 43.570312 24.917969 43.808594 22.980469 C 44.128906 20.363281 43.875 17.691406 43.035156 15.109375 C 42.488281 13.425781 41.71875 11.875 40.769531 10.476562 C 40.054688 9.4375 39.246094 8.480469 38.355469 7.617188 C 40.625 6.308594 43.140625 5.671875 45.632812 5.671875 C 50.164062 5.671875 54.640625 7.769531 57.503906 11.707031 C 59.890625 14.992188 60.710938 18.945312 60.101562 22.667969 " clip-rule="nonzero"/></clipPath><clipPath id="96f01ffc5b"><path d="M 0.269531 0.617188 L 22.394531 0.617188 L 22.394531 30 L 0.269531 30 Z M 0.269531 0.617188 " clip-rule="nonzero"/></clipPath><clipPath id="0a517d9a6a"><path d="M 22.101562 17.671875 C 21.902344 18.894531 21.550781 20.09375 21.042969 21.238281 C 20.558594 22.351562 19.925781 23.410156 19.15625 24.382812 C 18.347656 25.414062 17.378906 26.355469 16.265625 27.164062 C 13.371094 29.269531 9.890625 30.226562 6.367188 29.910156 L 6.363281 29.910156 L 6.359375 29.90625 C 6.027344 29.878906 5.695312 29.839844 5.363281 29.785156 C 5.011719 29.726562 4.65625 29.660156 4.3125 29.585938 C 3.132812 29.308594 2.003906 28.890625 0.941406 28.347656 C 0.976562 28.316406 1.003906 28.28125 1.035156 28.25 C 1.847656 27.375 2.582031 26.40625 3.21875 25.367188 C 3.476562 24.949219 3.71875 24.519531 3.941406 24.082031 C 4.015625 23.929688 4.089844 23.777344 4.160156 23.625 C 5.019531 21.820312 5.570312 19.917969 5.808594 17.980469 C 6.128906 15.363281 5.875 12.691406 5.035156 10.109375 C 4.488281 8.425781 3.71875 6.875 2.769531 5.476562 C 2.054688 4.4375 1.246094 3.480469 0.355469 2.617188 C 2.625 1.308594 5.140625 0.671875 7.632812 0.671875 C 12.164062 0.671875 16.640625 2.769531 19.503906 6.707031 C 21.890625 9.992188 22.710938 13.945312 22.101562 17.667969 " clip-rule="nonzero"/></clipPath><clipPath id="a6b66ef47d"><rect x="0" width="23" y="0" height="30"/></clipPath><clipPath id="d21555f6bb"><path d="M 10.925781 6 L 40.351562 6 L 40.351562 31.242188 L 10.925781 31.242188 Z M 10.925781 6 " clip-rule="nonzero"/></clipPath><clipPath id="ac357d6eea"><path d="M 39.097656 26.507812 C 38.96875 26.820312 38.828125 27.121094 38.671875 27.421875 C 38.511719 27.738281 38.335938 28.050781 38.15625 28.355469 C 37.527344 29.390625 36.785156 30.339844 35.941406 31.183594 C 35.921875 31.140625 35.902344 31.101562 35.875 31.0625 C 35.292969 30.015625 34.601562 29.019531 33.8125 28.097656 C 33.492188 27.722656 33.160156 27.363281 32.808594 27.015625 C 32.6875 26.894531 32.5625 26.773438 32.433594 26.652344 C 30.988281 25.28125 29.347656 24.171875 27.582031 23.347656 C 25.195312 22.238281 22.574219 21.652344 19.859375 21.652344 C 18.085938 21.652344 16.371094 21.902344 14.75 22.378906 C 13.539062 22.730469 12.378906 23.207031 11.285156 23.789062 C 11.070312 22.785156 10.96875 21.777344 10.96875 20.777344 C 10.96875 14.605469 14.910156 8.851562 21.089844 6.839844 C 24.953125 5.585938 28.96875 6.027344 32.324219 7.757812 C 33.425781 8.324219 34.457031 9.035156 35.386719 9.863281 C 36.296875 10.671875 37.105469 11.601562 37.796875 12.632812 C 38.527344 13.722656 39.121094 14.933594 39.546875 16.242188 C 40.652344 19.648438 40.488281 23.253906 39.09375 26.507812 " clip-rule="nonzero"/></clipPath><clipPath id="91c155b8cf"><path d="M 0.925781 0 L 30.351562 0 L 30.351562 25.242188 L 0.925781 25.242188 Z M 0.925781 0 " clip-rule="nonzero"/></clipPath><clipPath id="2c52c92400"><path d="M 29.097656 20.507812 C 28.96875 20.820312 28.828125 21.121094 28.671875 21.421875 C 28.511719 21.738281 28.335938 22.050781 28.15625 22.355469 C 27.527344 23.390625 26.785156 24.339844 25.941406 25.183594 C 25.921875 25.140625 25.902344 25.101562 25.875 25.0625 C 25.292969 24.015625 24.601562 23.019531 23.8125 22.097656 C 23.492188 21.722656 23.160156 21.363281 22.808594 21.015625 C 22.6875 20.894531 22.5625 20.773438 22.433594 20.652344 C 20.988281 19.28125 19.347656 18.171875 17.582031 17.347656 C 15.195312 16.238281 12.574219 15.652344 9.859375 15.652344 C 8.085938 15.652344 6.371094 15.902344 4.75 16.378906 C 3.539062 16.730469 2.378906 17.207031 1.285156 17.789062 C 1.070312 16.785156 0.96875 15.777344 0.96875 14.777344 C 0.96875 8.605469 4.910156 2.851562 11.089844 0.839844 C 14.953125 -0.414062 18.96875 0.0273438 22.324219 1.757812 C 23.425781 2.324219 24.457031 3.035156 25.386719 3.863281 C 26.296875 4.671875 27.105469 5.601562 27.796875 6.632812 C 28.527344 7.722656 29.121094 8.933594 29.546875 10.242188 C 30.652344 13.648438 30.488281 17.253906 29.09375 20.507812 " clip-rule="nonzero"/></clipPath><clipPath id="646a3a6b55"><rect x="0" width="31" y="0" height="26"/></clipPath><clipPath id="251a203ba9"><path d="M 5.148438 25.285156 L 33 25.285156 L 33 54.53125 L 5.148438 54.53125 Z M 5.148438 25.285156 " clip-rule="nonzero"/></clipPath><clipPath id="1fd0601990"><path d="M 32.949219 33.363281 C 32.90625 33.371094 32.863281 33.378906 32.824219 33.390625 C 31.648438 33.621094 30.488281 33.96875 29.363281 34.4375 C 28.914062 34.621094 28.464844 34.828125 28.023438 35.054688 C 27.871094 35.132812 27.722656 35.214844 27.570312 35.292969 C 27.570312 35.296875 27.566406 35.296875 27.566406 35.296875 L 27.5625 35.296875 C 25.8125 36.253906 24.25 37.46875 22.925781 38.890625 C 21.132812 40.820312 19.761719 43.132812 18.925781 45.714844 C 18.378906 47.398438 18.089844 49.105469 18.039062 50.796875 C 18 52.058594 18.09375 53.308594 18.308594 54.527344 C 14.890625 54.164062 11.820312 52.621094 9.511719 50.316406 C 6.859375 47.664062 5.21875 44 5.21875 39.960938 C 5.222656 35.898438 6.882812 32.21875 9.5625 29.566406 C 10.445312 28.691406 11.433594 27.929688 12.511719 27.304688 C 13.5625 26.6875 14.695312 26.203125 15.890625 25.867188 C 17.15625 25.507812 18.488281 25.316406 19.867188 25.316406 C 23.4375 25.316406 26.820312 26.589844 29.488281 28.917969 C 29.738281 29.136719 29.988281 29.367188 30.226562 29.605469 C 30.476562 29.859375 30.722656 30.121094 30.949219 30.386719 C 31.746094 31.304688 32.417969 32.300781 32.953125 33.367188 " clip-rule="nonzero"/></clipPath><clipPath id="c48e600058"><path d="M 0.148438 0.285156 L 28 0.285156 L 28 29.53125 L 0.148438 29.53125 Z M 0.148438 0.285156 " clip-rule="nonzero"/></clipPath><clipPath id="59259de031"><path d="M 27.949219 8.363281 C 27.90625 8.371094 27.863281 8.378906 27.824219 8.390625 C 26.648438 8.621094 25.488281 8.96875 24.363281 9.4375 C 23.914062 9.621094 23.464844 9.828125 23.023438 10.054688 C 22.871094 10.132812 22.722656 10.214844 22.570312 10.292969 C 22.570312 10.296875 22.566406 10.296875 22.566406 10.296875 L 22.5625 10.296875 C 20.8125 11.253906 19.25 12.46875 17.925781 13.890625 C 16.132812 15.820312 14.761719 18.132812 13.925781 20.714844 C 13.378906 22.398438 13.089844 24.105469 13.039062 25.796875 C 13 27.058594 13.09375 28.308594 13.308594 29.527344 C 9.890625 29.164062 6.820312 27.621094 4.511719 25.316406 C 1.859375 22.664062 0.21875 19 0.21875 14.960938 C 0.222656 10.898438 1.882812 7.21875 4.5625 4.566406 C 5.445312 3.691406 6.433594 2.929688 7.511719 2.304688 C 8.5625 1.6875 9.695312 1.203125 10.890625 0.867188 C 12.15625 0.507812 13.488281 0.316406 14.867188 0.316406 C 18.4375 0.316406 21.820312 1.589844 24.488281 3.917969 C 24.738281 4.136719 24.988281 4.367188 25.226562 4.605469 C 25.476562 4.859375 25.722656 5.121094 25.949219 5.386719 C 26.746094 6.304688 27.417969 7.300781 27.953125 8.367188 " clip-rule="nonzero"/></clipPath><clipPath id="b9a9c67011"><rect x="0" width="28" y="0" height="30"/></clipPath><clipPath id="fb841f52e7"><path d="M 21.578125 36.839844 L 49.742188 36.839844 L 49.742188 66.085938 L 21.578125 66.085938 Z M 21.578125 36.839844 " clip-rule="nonzero"/></clipPath><clipPath id="f371af9bfd"><path d="M 49.703125 57.351562 C 47.324219 62.695312 42 66.019531 36.324219 66.019531 C 34.828125 66.019531 33.308594 65.789062 31.808594 65.304688 C 27.945312 64.046875 24.957031 61.328125 23.257812 57.957031 C 22.703125 56.851562 22.28125 55.675781 22.019531 54.457031 C 21.761719 53.265625 21.648438 52.035156 21.695312 50.796875 C 21.746094 49.480469 21.980469 48.152344 22.40625 46.84375 C 23.507812 43.449219 25.757812 40.628906 28.792969 38.8125 C 29.082031 38.636719 29.382812 38.472656 29.6875 38.316406 C 30.003906 38.15625 30.328125 38.003906 30.652344 37.871094 C 31.773438 37.398438 32.929688 37.066406 34.109375 36.882812 C 34.101562 36.925781 34.09375 36.96875 34.089844 37.011719 C 33.945312 38.203125 33.921875 39.410156 34.019531 40.625 C 34.054688 41.113281 34.113281 41.609375 34.1875 42.097656 C 34.214844 42.265625 34.246094 42.4375 34.277344 42.605469 C 34.644531 44.570312 35.316406 46.425781 36.261719 48.128906 C 37.539062 50.433594 39.316406 52.445312 41.511719 54.042969 C 42.945312 55.085938 44.484375 55.886719 46.074219 56.460938 C 47.261719 56.886719 48.476562 57.183594 49.703125 57.355469 " clip-rule="nonzero"/></clipPath><clipPath id="c419ca4b26"><path d="M 0.578125 0.855469 L 28.714844 0.855469 L 28.714844 30.085938 L 0.578125 30.085938 Z M 0.578125 0.855469 " clip-rule="nonzero"/></clipPath><clipPath id="36a75a2974"><path d="M 28.703125 21.351562 C 26.324219 26.695312 21 30.019531 15.324219 30.019531 C 13.828125 30.019531 12.308594 29.789062 10.808594 29.304688 C 6.945312 28.046875 3.957031 25.328125 2.257812 21.957031 C 1.703125 20.851562 1.28125 19.675781 1.019531 18.457031 C 0.761719 17.265625 0.648438 16.035156 0.695312 14.796875 C 0.746094 13.480469 0.980469 12.152344 1.40625 10.84375 C 2.507812 7.449219 4.757812 4.628906 7.792969 2.8125 C 8.082031 2.636719 8.382812 2.472656 8.6875 2.316406 C 9.003906 2.15625 9.328125 2.003906 9.652344 1.871094 C 10.773438 1.398438 11.929688 1.066406 13.109375 0.882812 C 13.101562 0.925781 13.09375 0.96875 13.089844 1.011719 C 12.945312 2.203125 12.921875 3.410156 13.019531 4.625 C 13.054688 5.113281 13.113281 5.609375 13.1875 6.097656 C 13.214844 6.265625 13.246094 6.4375 13.277344 6.605469 C 13.644531 8.570312 14.316406 10.425781 15.261719 12.128906 C 16.539062 14.433594 18.316406 16.445312 20.511719 18.042969 C 21.945312 19.085938 23.484375 19.886719 25.074219 20.460938 C 26.261719 20.886719 27.476562 21.183594 28.703125 21.355469 " clip-rule="nonzero"/></clipPath><clipPath id="204bab3cd0"><rect x="0" width="29" y="0" height="31"/></clipPath><clipPath id="b6fd4f0673"><path d="M 14.261719 78.917969 L 34.648438 78.917969 L 34.648438 92.472656 L 14.261719 92.472656 Z M 14.261719 78.917969 " clip-rule="nonzero"/></clipPath><clipPath id="bb246715b4"><path d="M 14.265625 78.960938 L 17.425781 78.960938 L 20.203125 88.042969 L 23.210938 78.921875 L 25.742188 78.921875 L 28.746094 88.042969 L 31.527344 78.960938 L 34.609375 78.960938 L 30.03125 92.464844 L 27.464844 92.464844 L 24.4375 83.691406 L 21.410156 92.464844 L 18.84375 92.464844 Z M 14.265625 78.960938 " clip-rule="nonzero"/></clipPath><clipPath id="9619cfbef2"><path d="M 0.261719 0.917969 L 20.648438 0.917969 L 20.648438 14.472656 L 0.261719 14.472656 Z M 0.261719 0.917969 " clip-rule="nonzero"/></clipPath><clipPath id="a0ee34d0e6"><path d="M 0.265625 0.960938 L 3.425781 0.960938 L 6.203125 10.042969 L 9.210938 0.921875 L 11.742188 0.921875 L 14.746094 10.042969 L 17.527344 0.960938 L 20.609375 0.960938 L 16.03125 14.464844 L 13.464844 14.464844 L 10.4375 5.691406 L 7.410156 14.464844 L 4.84375 14.464844 Z M 0.265625 0.960938 " clip-rule="nonzero"/></clipPath><clipPath id="0758c3344b"><rect x="0" width="21" y="0" height="15"/></clipPath><clipPath id="d5c36224d0"><path d="M 35.609375 78.917969 L 47.902344 78.917969 L 47.902344 92.410156 L 35.609375 92.410156 Z M 35.609375 78.917969 " clip-rule="nonzero"/></clipPath><clipPath id="aca00d169b"><path d="M 35.640625 78.960938 L 38.59375 78.960938 L 38.59375 84.824219 L 44.03125 78.960938 L 47.59375 78.960938 L 42.136719 84.652344 L 47.84375 92.371094 L 44.300781 92.371094 L 40.144531 86.660156 L 38.59375 88.269531 L 38.59375 92.371094 L 35.640625 92.371094 Z M 35.640625 78.960938 " clip-rule="nonzero"/></clipPath><clipPath id="48008c3efc"><path d="M 0.609375 0.917969 L 12.902344 0.917969 L 12.902344 14.410156 L 0.609375 14.410156 Z M 0.609375 0.917969 " clip-rule="nonzero"/></clipPath><clipPath id="061214b451"><path d="M 0.640625 0.960938 L 3.59375 0.960938 L 3.59375 6.824219 L 9.03125 0.960938 L 12.59375 0.960938 L 7.136719 6.652344 L 12.84375 14.371094 L 9.300781 14.371094 L 5.144531 8.660156 L 3.59375 10.269531 L 3.59375 14.371094 L 0.640625 14.371094 Z M 0.640625 0.960938 " clip-rule="nonzero"/></clipPath><clipPath id="7fe29871d6"><rect x="0" width="13" y="0" height="15"/></clipPath><clipPath id="3cdd44475d"><path d="M 48.476562 78.960938 L 58.6875 78.960938 L 58.6875 81.640625 L 48.476562 81.640625 Z M 48.476562 81.640625 L 51.425781 81.640625 L 51.425781 84.496094 L 48.476562 84.496094 Z M 48.476562 84.496094 L 57.824219 84.496094 L 57.824219 87.179688 L 48.476562 87.179688 Z M 48.476562 87.179688 L 51.425781 87.179688 L 51.425781 92.371094 L 48.476562 92.371094 Z M 48.476562 87.179688 " clip-rule="nonzero"/></clipPath><clipPath id="e540542ec2"><path d="M 0.476562 0.960938 L 10.6875 0.960938 L 10.6875 3.640625 L 0.476562 3.640625 Z M 0.476562 3.640625 L 3.425781 3.640625 L 3.425781 6.496094 L 0.476562 6.496094 Z M 0.476562 6.496094 L 9.824219 6.496094 L 9.824219 9.179688 L 0.476562 9.179688 Z M 0.476562 9.179688 L 3.425781 9.179688 L 3.425781 14.371094 L 0.476562 14.371094 Z M 0.476562 9.179688 " clip-rule="nonzero"/></clipPath><clipPath id="eb0fd775d1"><rect x="0" width="11" y="0" height="15"/></clipPath><clipPath id="77c736787b"><rect x="0" width="73" y="0" height="94"/></clipPath></defs><g transform="matrix(1, 0, 0, 1, 34, 23)"><g clip-path="url(#77c736787b)"><g clip-path="url(#2a81eb18e2)"><g clip-path="url(#f3afb43a62)"><g transform="matrix(1, 0, 0, 1, 1, 1)"><g clip-path="url(#34e48e5d7f)"><g clip-path="url(#ddf2a06139)"><g clip-path="url(#da2d41134e)"><path fill="#ffffff" d="M -0.726562 -0.265625 L 70.949219 -0.265625 L 70.949219 69.960938 L -0.726562 69.960938 Z M -0.726562 -0.265625 " fill-opacity="1" fill-rule="nonzero"/></g></g></g></g></g></g><g clip-path="url(#3d3a544933)"><g clip-path="url(#5f99b119fe)"><g transform="matrix(1, 0, 0, 1, 37, 28)"><g clip-path="url(#2bf9da2f8c)"><g clip-path="url(#88eda94cfe)"><g clip-path="url(#29f2e8bdf5)"><rect x="-122.36768" width="243.85536" fill="#2a55a6" y="-105.25056" height="257.54112" fill-opacity="1"/></g></g></g></g></g></g><g clip-path="url(#6d5bfcc60b)"><g clip-path="url(#30155251db)"><g transform="matrix(1, 0, 0, 1, 38, 5)"><g clip-path="url(#a6b66ef47d)"><g clip-path="url(#96f01ffc5b)"><g clip-path="url(#0a517d9a6a)"><rect x="-123.36768" width="243.85536" fill="#febd2a" y="-82.25056" height="257.54112" fill-opacity="1"/></g></g></g></g></g></g><g clip-path="url(#d21555f6bb)"><g clip-path="url(#ac357d6eea)"><g transform="matrix(1, 0, 0, 1, 10, 6)"><g clip-path="url(#646a3a6b55)"><g clip-path="url(#91c155b8cf)"><g clip-path="url(#2c52c92400)"><rect x="-95.36768" width="243.85536" fill="#42b86c" y="-83.25056" height="257.54112" fill-opacity="1"/></g></g></g></g></g></g><g clip-path="url(#251a203ba9)"><g clip-path="url(#1fd0601990)"><g transform="matrix(1, 0, 0, 1, 5, 25)"><g clip-path="url(#b9a9c67011)"><g clip-path="url(#c48e600058)"><g clip-path="url(#59259de031)"><rect x="-90.36768" width="243.85536" fill="#020a0e" y="-102.25056" height="257.54112" fill-opacity="1"/></g></g></g></g></g></g><g clip-path="url(#fb841f52e7)"><g clip-path="url(#f371af9bfd)"><g transform="matrix(1, 0, 0, 1, 21, 36)"><g clip-path="url(#204bab3cd0)"><g clip-path="url(#c419ca4b26)"><g clip-path="url(#36a75a2974)"><rect x="-106.36768" width="243.85536" fill="#ef3243" y="-113.25056" height="257.54112" fill-opacity="1"/></g></g></g></g></g></g><g clip-path="url(#b6fd4f0673)"><g clip-path="url(#bb246715b4)"><g transform="matrix(1, 0, 0, 1, 14, 78)"><g clip-path="url(#0758c3344b)"><g clip-path="url(#9619cfbef2)"><g clip-path="url(#a0ee34d0e6)"><path fill="#ffffff" d="M -0.640625 0.0195312 L 45.597656 0.0195312 L 45.597656 15.371094 L -0.640625 15.371094 Z M -0.640625 0.0195312 " fill-opacity="1" fill-rule="nonzero"/></g></g></g></g></g></g><g clip-path="url(#d5c36224d0)"><g clip-path="url(#aca00d169b)"><g transform="matrix(1, 0, 0, 1, 35, 78)"><g clip-path="url(#7fe29871d6)"><g clip-path="url(#48008c3efc)"><g clip-path="url(#061214b451)"><path fill="#ffffff" d="M -21.640625 0.0195312 L 24.597656 0.0195312 L 24.597656 15.371094 L -21.640625 15.371094 Z M -21.640625 0.0195312 " fill-opacity="1" fill-rule="nonzero"/></g></g></g></g></g></g><g clip-path="url(#3cdd44475d)"><g transform="matrix(1, 0, 0, 1, 48, 78)"><g clip-path="url(#eb0fd775d1)"><g clip-path="url(#e540542ec2)"><path fill="#ffffff" d="M -34.640625 0.0195312 L 11.597656 0.0195312 L 11.597656 15.371094 L -34.640625 15.371094 Z M -34.640625 0.0195312 " fill-opacity="1" fill-rule="nonzero"/></g></g></g></g></g></g></svg>